<svg xmlns:xlink="http://www.w3.org/1999/xlink" xmlns="http://www.w3.org/2000/svg" version="1.0" width="256" height="256" viewBox="0 0 256.000000 256.000000" preserveAspectRatio="xMidYMid meet">

<g transform="translate(0.000000,256.000000) scale(0.100000,-0.100000)" fill="#000000" stroke="none">
<path d="M0 1280 l0 -1280 1280 0 1280 0 0 1280 0 1280 -1280 0 -1280 0 0 -1280z m1465 941 c256 -53 474 -200 616 -415 253 -383 197 -894 -133 -1212 -435 -421 -1136 -344 -1469 160 -291 441 -168 1034 275 1327 209 138 471 190 711 140z"/>
<path d="M1187 2030 c-103 -13 -103 -13 -53 -65 66 -68 99 -143 104 -240 5 -99 -14 -169 -66 -244 -132 -189 -411 -216 -576 -56 -25 24 -48 40 -51 36 -2 -5 -9 -49 -15 -98 -35 -316 130 -618 415 -758 117 -58 203 -78 335 -78 132 0 218 20 335 78 151 74 266 189 340 340 58 117 78 203 78 335 0 132 -20 218 -78 335 -74 151 -189 266 -340 340 -136 67 -283 93 -428 75z"/>
</g>
</svg>